<svg xmlns="http://www.w3.org/2000/svg" xmlns:xlink="http://www.w3.org/1999/xlink" width="500" zoomAndPan="magnify" viewBox="0 0 375 374.999991" height="500" preserveAspectRatio="xMidYMid meet" version="1.0"><defs><g/><clipPath id="8b7ea4a15b"><path d="M 17.886719 127.882812 L 122.886719 127.882812 L 122.886719 204.382812 L 17.886719 204.382812 Z M 17.886719 127.882812 " clip-rule="nonzero"/></clipPath></defs><g clip-path="url(#8b7ea4a15b)"><path fill="#03989e" d="M 40.039062 204.605469 L 64.792969 204.605469 C 51.914062 201.261719 44.011719 192.5625 44.011719 192.5625 C 36.964844 185.515625 32.605469 175.789062 32.605469 165.054688 C 32.605469 164.515625 32.621094 164.003906 32.644531 163.527344 C 32.660156 163.027344 32.683594 162.527344 32.722656 162.015625 C 32.734375 161.835938 32.605469 161.683594 32.429688 161.671875 C 32.363281 161.65625 32.3125 161.671875 32.261719 161.695312 C 28.007812 163.296875 24.367188 166.15625 21.820312 169.832031 C 19.347656 173.417969 17.886719 177.761719 17.886719 182.453125 C 17.886719 188.5625 20.371094 194.097656 24.382812 198.109375 C 28.378906 202.121094 33.925781 204.605469 40.039062 204.605469 Z M 78.730469 204.605469 L 94.363281 204.605469 C 102.242188 204.605469 109.390625 201.402344 114.554688 196.238281 C 119.71875 191.074219 122.921875 183.9375 122.921875 176.046875 C 122.921875 169.21875 120.511719 162.9375 116.503906 158.03125 C 112.429688 153.023438 106.675781 149.421875 100.117188 148.078125 C 99.9375 148.050781 99.757812 148.152344 99.730469 148.332031 C 99.71875 148.410156 99.71875 148.472656 99.757812 148.539062 C 102.664062 155.074219 104.152344 162.207031 104.152344 169.128906 C 104.152344 175.96875 102.691406 182.59375 99.667969 188.191406 C 97.707031 191.855469 95.066406 195.085938 91.75 197.648438 C 91.941406 197.492188 92.144531 197.328125 92.339844 197.171875 C 89.417969 199.644531 84.742188 202.875 78.730469 204.605469 Z M 70.148438 137.941406 C 63.484375 137.941406 57.449219 140.644531 53.09375 145.015625 C 48.726562 149.371094 46.023438 155.40625 46.023438 162.066406 C 46.023438 165.820312 46.878906 169.371094 48.40625 172.535156 C 49.558594 174.90625 51.070312 177.058594 52.890625 178.917969 C 50.03125 177.03125 47.625 174.558594 45.816406 171.652344 C 43.550781 168.039062 42.242188 163.746094 42.242188 159.171875 C 42.242188 152.636719 44.894531 146.730469 49.171875 142.453125 C 53.441406 138.171875 59.359375 135.535156 65.878906 135.535156 C 68.890625 135.535156 71.761719 136.097656 74.402344 137.109375 C 76.195312 137.800781 77.886719 138.710938 79.4375 139.800781 C 78.449219 139.390625 77.425781 139.042969 76.375 138.761719 C 74.375 138.222656 72.300781 137.941406 70.148438 137.941406 Z M 94.082031 145.617188 C 91.519531 140.289062 87.480469 135.804688 82.511719 132.675781 C 77.695312 129.640625 71.992188 127.886719 65.878906 127.886719 C 57.246094 127.886719 49.417969 131.382812 43.765625 137.046875 C 30.761719 150.050781 31.980469 173.84375 44.664062 186.527344 C 50.878906 192.742188 59.460938 196.585938 68.957031 196.585938 C 72.09375 196.585938 75.132812 196.160156 78.027344 195.378906 C 88.699219 192.457031 95.9375 182.492188 91.683594 170.652344 C 91.621094 170.484375 91.441406 170.394531 91.261719 170.460938 C 91.160156 170.5 91.09375 170.574219 91.070312 170.679688 C 88.40625 180.59375 79.652344 187.386719 77.515625 188.921875 C 76.605469 172.675781 79.640625 162.414062 83.433594 155.996094 C 87.25 149.539062 91.824219 146.960938 93.925781 146.078125 C 94.09375 146 94.171875 145.808594 94.09375 145.644531 Z M 94.082031 145.617188 " fill-opacity="1" fill-rule="evenodd"/></g><g fill="#03989e" fill-opacity="1"><g transform="translate(136.098994, 186.552996)"><g><path d="M 38.203125 -24.875 L 29.8125 0 L 27.046875 0 L 19.75 -21.21875 L 12.4375 0 L 9.703125 0 L 1.3125 -24.875 L 4.015625 -24.875 L 11.1875 -3.484375 L 18.625 -24.875 L 21.0625 -24.875 L 28.390625 -3.375 L 35.671875 -24.875 Z M 38.203125 -24.875 "/></g></g></g><g fill="#03989e" fill-opacity="1"><g transform="translate(175.561264, 186.552996)"><g><path d="M 19.796875 -8.5625 L 4.15625 -8.5625 C 4.300781 -6.625 5.046875 -5.054688 6.390625 -3.859375 C 7.742188 -2.660156 9.453125 -2.0625 11.515625 -2.0625 C 12.671875 -2.0625 13.734375 -2.265625 14.703125 -2.671875 C 15.679688 -3.085938 16.523438 -3.703125 17.234375 -4.515625 L 18.65625 -2.875 C 17.820312 -1.882812 16.78125 -1.128906 15.53125 -0.609375 C 14.289062 -0.0859375 12.925781 0.171875 11.4375 0.171875 C 9.519531 0.171875 7.820312 -0.234375 6.34375 -1.046875 C 4.863281 -1.867188 3.707031 -3 2.875 -4.4375 C 2.050781 -5.882812 1.640625 -7.519531 1.640625 -9.34375 C 1.640625 -11.164062 2.035156 -12.800781 2.828125 -14.25 C 3.617188 -15.695312 4.707031 -16.820312 6.09375 -17.625 C 7.476562 -18.425781 9.035156 -18.828125 10.765625 -18.828125 C 12.492188 -18.828125 14.046875 -18.425781 15.421875 -17.625 C 16.796875 -16.820312 17.875 -15.703125 18.65625 -14.265625 C 19.4375 -12.828125 19.828125 -11.1875 19.828125 -9.34375 Z M 10.765625 -16.671875 C 8.960938 -16.671875 7.453125 -16.09375 6.234375 -14.9375 C 5.015625 -13.789062 4.320312 -12.296875 4.15625 -10.453125 L 17.40625 -10.453125 C 17.238281 -12.296875 16.546875 -13.789062 15.328125 -14.9375 C 14.109375 -16.09375 12.585938 -16.671875 10.765625 -16.671875 Z M 10.765625 -16.671875 "/></g></g></g><g fill="#03989e" fill-opacity="1"><g transform="translate(197.015101, 186.552996)"><g><path d="M 10.0625 -18.828125 C 12.5 -18.828125 14.367188 -18.21875 15.671875 -17 C 16.972656 -15.78125 17.625 -13.972656 17.625 -11.578125 L 17.625 0 L 15.203125 0 L 15.203125 -2.90625 C 14.640625 -1.9375 13.804688 -1.179688 12.703125 -0.640625 C 11.597656 -0.0976562 10.289062 0.171875 8.78125 0.171875 C 6.695312 0.171875 5.035156 -0.320312 3.796875 -1.3125 C 2.566406 -2.3125 1.953125 -3.628906 1.953125 -5.265625 C 1.953125 -6.847656 2.523438 -8.125 3.671875 -9.09375 C 4.828125 -10.0625 6.660156 -10.546875 9.171875 -10.546875 L 15.09375 -10.546875 L 15.09375 -11.6875 C 15.09375 -13.300781 14.644531 -14.523438 13.75 -15.359375 C 12.851562 -16.203125 11.539062 -16.625 9.8125 -16.625 C 8.625 -16.625 7.484375 -16.425781 6.390625 -16.03125 C 5.304688 -15.644531 4.375 -15.109375 3.59375 -14.421875 L 2.453125 -16.3125 C 3.398438 -17.113281 4.535156 -17.734375 5.859375 -18.171875 C 7.191406 -18.609375 8.59375 -18.828125 10.0625 -18.828125 Z M 9.171875 -1.8125 C 10.585938 -1.8125 11.804688 -2.132812 12.828125 -2.78125 C 13.847656 -3.4375 14.601562 -4.378906 15.09375 -5.609375 L 15.09375 -8.671875 L 9.234375 -8.671875 C 6.035156 -8.671875 4.4375 -7.554688 4.4375 -5.328125 C 4.4375 -4.234375 4.847656 -3.375 5.671875 -2.75 C 6.503906 -2.125 7.671875 -1.8125 9.171875 -1.8125 Z M 9.171875 -1.8125 "/></g></g></g><g fill="#03989e" fill-opacity="1"><g transform="translate(217.971669, 186.552996)"><g><path d="M 13.359375 -1.140625 C 12.890625 -0.710938 12.300781 -0.382812 11.59375 -0.15625 C 10.894531 0.0625 10.171875 0.171875 9.421875 0.171875 C 7.660156 0.171875 6.304688 -0.300781 5.359375 -1.25 C 4.410156 -2.195312 3.9375 -3.535156 3.9375 -5.265625 L 3.9375 -16.5625 L 0.609375 -16.5625 L 0.609375 -18.6875 L 3.9375 -18.6875 L 3.9375 -22.78125 L 6.46875 -22.78125 L 6.46875 -18.6875 L 12.15625 -18.6875 L 12.15625 -16.5625 L 6.46875 -16.5625 L 6.46875 -5.40625 C 6.46875 -4.289062 6.742188 -3.441406 7.296875 -2.859375 C 7.859375 -2.273438 8.660156 -1.984375 9.703125 -1.984375 C 10.222656 -1.984375 10.722656 -2.066406 11.203125 -2.234375 C 11.691406 -2.398438 12.113281 -2.640625 12.46875 -2.953125 Z M 13.359375 -1.140625 "/></g></g></g><g fill="#03989e" fill-opacity="1"><g transform="translate(232.392632, 186.552996)"><g><path d="M 13.046875 -18.828125 C 15.390625 -18.828125 17.253906 -18.144531 18.640625 -16.78125 C 20.023438 -15.425781 20.71875 -13.445312 20.71875 -10.84375 L 20.71875 0 L 18.1875 0 L 18.1875 -10.59375 C 18.1875 -12.53125 17.703125 -14.007812 16.734375 -15.03125 C 15.765625 -16.050781 14.378906 -16.5625 12.578125 -16.5625 C 10.566406 -16.5625 8.972656 -15.960938 7.796875 -14.765625 C 6.628906 -13.566406 6.046875 -11.914062 6.046875 -9.8125 L 6.046875 0 L 3.515625 0 L 3.515625 -26.359375 L 6.046875 -26.359375 L 6.046875 -15.421875 C 6.734375 -16.515625 7.675781 -17.351562 8.875 -17.9375 C 10.082031 -18.53125 11.472656 -18.828125 13.046875 -18.828125 Z M 13.046875 -18.828125 "/></g></g></g><g fill="#03989e" fill-opacity="1"><g transform="translate(256.439402, 186.552996)"><g><path d="M 19.796875 -8.5625 L 4.15625 -8.5625 C 4.300781 -6.625 5.046875 -5.054688 6.390625 -3.859375 C 7.742188 -2.660156 9.453125 -2.0625 11.515625 -2.0625 C 12.671875 -2.0625 13.734375 -2.265625 14.703125 -2.671875 C 15.679688 -3.085938 16.523438 -3.703125 17.234375 -4.515625 L 18.65625 -2.875 C 17.820312 -1.882812 16.78125 -1.128906 15.53125 -0.609375 C 14.289062 -0.0859375 12.925781 0.171875 11.4375 0.171875 C 9.519531 0.171875 7.820312 -0.234375 6.34375 -1.046875 C 4.863281 -1.867188 3.707031 -3 2.875 -4.4375 C 2.050781 -5.882812 1.640625 -7.519531 1.640625 -9.34375 C 1.640625 -11.164062 2.035156 -12.800781 2.828125 -14.25 C 3.617188 -15.695312 4.707031 -16.820312 6.09375 -17.625 C 7.476562 -18.425781 9.035156 -18.828125 10.765625 -18.828125 C 12.492188 -18.828125 14.046875 -18.425781 15.421875 -17.625 C 16.796875 -16.820312 17.875 -15.703125 18.65625 -14.265625 C 19.4375 -12.828125 19.828125 -11.1875 19.828125 -9.34375 Z M 10.765625 -16.671875 C 8.960938 -16.671875 7.453125 -16.09375 6.234375 -14.9375 C 5.015625 -13.789062 4.320312 -12.296875 4.15625 -10.453125 L 17.40625 -10.453125 C 17.238281 -12.296875 16.546875 -13.789062 15.328125 -14.9375 C 14.109375 -16.09375 12.585938 -16.671875 10.765625 -16.671875 Z M 10.765625 -16.671875 "/></g></g></g><g fill="#03989e" fill-opacity="1"><g transform="translate(277.893239, 186.552996)"><g><path d="M 5.9375 -15.03125 C 6.53125 -16.28125 7.410156 -17.222656 8.578125 -17.859375 C 9.753906 -18.503906 11.207031 -18.828125 12.9375 -18.828125 L 12.9375 -16.375 L 12.328125 -16.421875 C 10.359375 -16.421875 8.816406 -15.816406 7.703125 -14.609375 C 6.597656 -13.398438 6.046875 -11.703125 6.046875 -9.515625 L 6.046875 0 L 3.515625 0 L 3.515625 -18.6875 L 5.9375 -18.6875 Z M 5.9375 -15.03125 "/></g></g></g><g fill="#03989e" fill-opacity="1"><g transform="translate(292.136601, 186.552996)"><g><path d="M 14.859375 0.21875 C 12.390625 0.21875 10.164062 -0.328125 8.1875 -1.421875 C 6.207031 -2.515625 4.65625 -4.023438 3.53125 -5.953125 C 2.40625 -7.878906 1.84375 -10.039062 1.84375 -12.4375 C 1.84375 -14.832031 2.40625 -16.992188 3.53125 -18.921875 C 4.65625 -20.847656 6.210938 -22.351562 8.203125 -23.4375 C 10.191406 -24.53125 12.421875 -25.078125 14.890625 -25.078125 C 16.734375 -25.078125 18.4375 -24.769531 20 -24.15625 C 21.5625 -23.539062 22.890625 -22.640625 23.984375 -21.453125 L 22.3125 -19.796875 C 20.375 -21.753906 17.921875 -22.734375 14.953125 -22.734375 C 12.992188 -22.734375 11.207031 -22.285156 9.59375 -21.390625 C 7.976562 -20.492188 6.710938 -19.257812 5.796875 -17.6875 C 4.890625 -16.125 4.4375 -14.375 4.4375 -12.4375 C 4.4375 -10.488281 4.890625 -8.734375 5.796875 -7.171875 C 6.710938 -5.609375 7.976562 -4.375 9.59375 -3.46875 C 11.207031 -2.570312 12.992188 -2.125 14.953125 -2.125 C 17.941406 -2.125 20.394531 -3.117188 22.3125 -5.109375 L 23.984375 -3.453125 C 22.890625 -2.265625 21.554688 -1.351562 19.984375 -0.71875 C 18.410156 -0.09375 16.703125 0.21875 14.859375 0.21875 Z M 14.859375 0.21875 "/></g></g></g><g fill="#03989e" fill-opacity="1"><g transform="translate(317.675189, 186.552996)"><g><path d="M 10.0625 -18.828125 C 12.5 -18.828125 14.367188 -18.21875 15.671875 -17 C 16.972656 -15.78125 17.625 -13.972656 17.625 -11.578125 L 17.625 0 L 15.203125 0 L 15.203125 -2.90625 C 14.640625 -1.9375 13.804688 -1.179688 12.703125 -0.640625 C 11.597656 -0.0976562 10.289062 0.171875 8.78125 0.171875 C 6.695312 0.171875 5.035156 -0.320312 3.796875 -1.3125 C 2.566406 -2.3125 1.953125 -3.628906 1.953125 -5.265625 C 1.953125 -6.847656 2.523438 -8.125 3.671875 -9.09375 C 4.828125 -10.0625 6.660156 -10.546875 9.171875 -10.546875 L 15.09375 -10.546875 L 15.09375 -11.6875 C 15.09375 -13.300781 14.644531 -14.523438 13.75 -15.359375 C 12.851562 -16.203125 11.539062 -16.625 9.8125 -16.625 C 8.625 -16.625 7.484375 -16.425781 6.390625 -16.03125 C 5.304688 -15.644531 4.375 -15.109375 3.59375 -14.421875 L 2.453125 -16.3125 C 3.398438 -17.113281 4.535156 -17.734375 5.859375 -18.171875 C 7.191406 -18.609375 8.59375 -18.828125 10.0625 -18.828125 Z M 9.171875 -1.8125 C 10.585938 -1.8125 11.804688 -2.132812 12.828125 -2.78125 C 13.847656 -3.4375 14.601562 -4.378906 15.09375 -5.609375 L 15.09375 -8.671875 L 9.234375 -8.671875 C 6.035156 -8.671875 4.4375 -7.554688 4.4375 -5.328125 C 4.4375 -4.234375 4.847656 -3.375 5.671875 -2.75 C 6.503906 -2.125 7.671875 -1.8125 9.171875 -1.8125 Z M 9.171875 -1.8125 "/></g></g></g><g fill="#03989e" fill-opacity="1"><g transform="translate(338.631757, 186.552996)"><g><path d="M 13.140625 -18.828125 C 14.898438 -18.828125 16.488281 -18.429688 17.90625 -17.640625 C 19.332031 -16.847656 20.445312 -15.726562 21.25 -14.28125 C 22.050781 -12.832031 22.453125 -11.1875 22.453125 -9.34375 C 22.453125 -7.46875 22.050781 -5.804688 21.25 -4.359375 C 20.445312 -2.921875 19.335938 -1.804688 17.921875 -1.015625 C 16.515625 -0.222656 14.921875 0.171875 13.140625 0.171875 C 11.628906 0.171875 10.265625 -0.140625 9.046875 -0.765625 C 7.828125 -1.390625 6.828125 -2.304688 6.046875 -3.515625 L 6.046875 6.890625 L 3.515625 6.890625 L 3.515625 -18.6875 L 5.9375 -18.6875 L 5.9375 -15 C 6.695312 -16.226562 7.695312 -17.171875 8.9375 -17.828125 C 10.175781 -18.492188 11.578125 -18.828125 13.140625 -18.828125 Z M 12.96875 -2.0625 C 14.269531 -2.0625 15.453125 -2.363281 16.515625 -2.96875 C 17.585938 -3.570312 18.425781 -4.429688 19.03125 -5.546875 C 19.632812 -6.660156 19.9375 -7.925781 19.9375 -9.34375 C 19.9375 -10.769531 19.632812 -12.03125 19.03125 -13.125 C 18.425781 -14.226562 17.585938 -15.085938 16.515625 -15.703125 C 15.453125 -16.316406 14.269531 -16.625 12.96875 -16.625 C 11.644531 -16.625 10.453125 -16.316406 9.390625 -15.703125 C 8.335938 -15.085938 7.507812 -14.226562 6.90625 -13.125 C 6.300781 -12.03125 6 -10.769531 6 -9.34375 C 6 -7.925781 6.300781 -6.660156 6.90625 -5.546875 C 7.507812 -4.429688 8.335938 -3.570312 9.390625 -2.96875 C 10.453125 -2.363281 11.644531 -2.0625 12.96875 -2.0625 Z M 12.96875 -2.0625 "/></g></g></g></svg>