<svg xmlns="http://www.w3.org/2000/svg" xmlns:xlink="http://www.w3.org/1999/xlink" width="500" zoomAndPan="magnify" viewBox="0 0 375 374.999991" height="500" preserveAspectRatio="xMidYMid meet" version="1.0"><defs><g/><clipPath id="3a4273f4ff"><path d="M 117.375 93.644531 L 257.625 93.644531 L 257.625 196.394531 L 117.375 196.394531 Z M 117.375 93.644531 " clip-rule="nonzero"/></clipPath></defs><g clip-path="url(#3a4273f4ff)"><path fill="#03989e" d="M 146.953125 196.078125 L 180.003906 196.078125 C 162.808594 191.613281 152.253906 180 152.253906 180 C 142.847656 170.589844 137.03125 157.605469 137.03125 143.269531 C 137.03125 142.550781 137.046875 141.867188 137.082031 141.234375 C 137.097656 140.566406 137.132812 139.902344 137.183594 139.214844 C 137.203125 138.976562 137.03125 138.773438 136.792969 138.753906 C 136.707031 138.738281 136.636719 138.753906 136.570312 138.789062 C 130.890625 140.925781 126.03125 144.742188 122.628906 149.652344 C 119.324219 154.441406 117.375 160.242188 117.375 166.5 C 117.375 174.660156 120.695312 182.050781 126.046875 187.40625 C 131.386719 192.757812 138.792969 196.078125 146.953125 196.078125 Z M 198.613281 196.078125 L 219.484375 196.078125 C 230.003906 196.078125 239.550781 191.800781 246.445312 184.90625 C 253.335938 178.015625 257.613281 168.484375 257.613281 157.949219 C 257.613281 148.832031 254.398438 140.449219 249.042969 133.898438 C 243.605469 127.207031 235.921875 122.402344 227.164062 120.605469 C 226.925781 120.570312 226.6875 120.707031 226.652344 120.945312 C 226.632812 121.050781 226.632812 121.136719 226.6875 121.222656 C 230.570312 129.945312 232.554688 139.472656 232.554688 148.710938 C 232.554688 157.84375 230.601562 166.691406 226.566406 174.164062 C 223.949219 179.058594 220.425781 183.367188 215.996094 186.789062 C 216.25 186.585938 216.523438 186.363281 216.78125 186.15625 C 212.878906 189.457031 206.636719 193.769531 198.613281 196.078125 Z M 187.152344 107.074219 C 178.257812 107.074219 170.199219 110.683594 164.382812 116.515625 C 158.550781 122.332031 154.941406 130.390625 154.941406 139.285156 C 154.941406 144.296875 156.085938 149.035156 158.125 153.261719 C 159.664062 156.425781 161.679688 159.300781 164.109375 161.78125 C 160.296875 159.265625 157.078125 155.964844 154.667969 152.082031 C 151.640625 147.257812 149.894531 141.527344 149.894531 135.417969 C 149.894531 126.695312 153.4375 118.808594 159.148438 113.09375 C 164.847656 107.382812 172.75 103.859375 181.457031 103.859375 C 185.476562 103.859375 189.308594 104.609375 192.832031 105.960938 C 195.226562 106.886719 197.484375 108.101562 199.554688 109.554688 C 198.238281 109.007812 196.871094 108.542969 195.464844 108.167969 C 192.796875 107.449219 190.027344 107.074219 187.152344 107.074219 Z M 219.109375 117.320312 C 215.6875 110.203125 210.296875 104.21875 203.660156 100.042969 C 197.226562 95.988281 189.617188 93.644531 181.457031 93.644531 C 169.925781 93.644531 159.472656 98.316406 151.929688 105.875 C 134.566406 123.238281 136.191406 155.007812 153.128906 171.941406 C 161.425781 180.238281 172.886719 185.371094 185.5625 185.371094 C 189.753906 185.371094 193.808594 184.804688 197.671875 183.761719 C 211.921875 179.863281 221.589844 166.550781 215.910156 150.746094 C 215.824219 150.523438 215.582031 150.402344 215.34375 150.488281 C 215.207031 150.542969 215.121094 150.644531 215.085938 150.78125 C 211.53125 164.019531 199.847656 173.085938 196.988281 175.140625 C 195.773438 153.449219 199.828125 139.746094 204.890625 131.175781 C 209.988281 122.554688 216.097656 119.117188 218.902344 117.9375 C 219.125 117.832031 219.226562 117.578125 219.125 117.355469 Z M 219.109375 117.320312 " fill-opacity="1" fill-rule="evenodd"/></g><g fill="#03989e" fill-opacity="1"><g transform="translate(74.18428, 243.074002)"><g><path d="M 38.203125 -24.875 L 29.8125 0 L 27.046875 0 L 19.75 -21.21875 L 12.4375 0 L 9.703125 0 L 1.3125 -24.875 L 4.015625 -24.875 L 11.1875 -3.484375 L 18.625 -24.875 L 21.0625 -24.875 L 28.390625 -3.375 L 35.671875 -24.875 Z M 38.203125 -24.875 "/></g></g></g><g fill="#03989e" fill-opacity="1"><g transform="translate(113.64655, 243.074002)"><g><path d="M 19.796875 -8.5625 L 4.15625 -8.5625 C 4.300781 -6.625 5.046875 -5.054688 6.390625 -3.859375 C 7.742188 -2.660156 9.453125 -2.0625 11.515625 -2.0625 C 12.671875 -2.0625 13.734375 -2.265625 14.703125 -2.671875 C 15.679688 -3.085938 16.523438 -3.703125 17.234375 -4.515625 L 18.65625 -2.875 C 17.820312 -1.882812 16.78125 -1.128906 15.53125 -0.609375 C 14.289062 -0.0859375 12.925781 0.171875 11.4375 0.171875 C 9.519531 0.171875 7.820312 -0.234375 6.34375 -1.046875 C 4.863281 -1.867188 3.707031 -3 2.875 -4.4375 C 2.050781 -5.882812 1.640625 -7.519531 1.640625 -9.34375 C 1.640625 -11.164062 2.035156 -12.800781 2.828125 -14.25 C 3.617188 -15.695312 4.707031 -16.820312 6.09375 -17.625 C 7.476562 -18.425781 9.035156 -18.828125 10.765625 -18.828125 C 12.492188 -18.828125 14.046875 -18.425781 15.421875 -17.625 C 16.796875 -16.820312 17.875 -15.703125 18.65625 -14.265625 C 19.4375 -12.828125 19.828125 -11.1875 19.828125 -9.34375 Z M 10.765625 -16.671875 C 8.960938 -16.671875 7.453125 -16.09375 6.234375 -14.9375 C 5.015625 -13.789062 4.320312 -12.296875 4.15625 -10.453125 L 17.40625 -10.453125 C 17.238281 -12.296875 16.546875 -13.789062 15.328125 -14.9375 C 14.109375 -16.09375 12.585938 -16.671875 10.765625 -16.671875 Z M 10.765625 -16.671875 "/></g></g></g><g fill="#03989e" fill-opacity="1"><g transform="translate(135.100387, 243.074002)"><g><path d="M 10.0625 -18.828125 C 12.5 -18.828125 14.367188 -18.21875 15.671875 -17 C 16.972656 -15.78125 17.625 -13.972656 17.625 -11.578125 L 17.625 0 L 15.203125 0 L 15.203125 -2.90625 C 14.640625 -1.9375 13.804688 -1.179688 12.703125 -0.640625 C 11.597656 -0.0976562 10.289062 0.171875 8.78125 0.171875 C 6.695312 0.171875 5.035156 -0.320312 3.796875 -1.3125 C 2.566406 -2.3125 1.953125 -3.628906 1.953125 -5.265625 C 1.953125 -6.847656 2.523438 -8.125 3.671875 -9.09375 C 4.828125 -10.0625 6.660156 -10.546875 9.171875 -10.546875 L 15.09375 -10.546875 L 15.09375 -11.6875 C 15.09375 -13.300781 14.644531 -14.523438 13.75 -15.359375 C 12.851562 -16.203125 11.539062 -16.625 9.8125 -16.625 C 8.625 -16.625 7.484375 -16.425781 6.390625 -16.03125 C 5.304688 -15.644531 4.375 -15.109375 3.59375 -14.421875 L 2.453125 -16.3125 C 3.398438 -17.113281 4.535156 -17.734375 5.859375 -18.171875 C 7.191406 -18.609375 8.59375 -18.828125 10.0625 -18.828125 Z M 9.171875 -1.8125 C 10.585938 -1.8125 11.804688 -2.132812 12.828125 -2.78125 C 13.847656 -3.4375 14.601562 -4.378906 15.09375 -5.609375 L 15.09375 -8.671875 L 9.234375 -8.671875 C 6.035156 -8.671875 4.4375 -7.554688 4.4375 -5.328125 C 4.4375 -4.234375 4.847656 -3.375 5.671875 -2.75 C 6.503906 -2.125 7.671875 -1.8125 9.171875 -1.8125 Z M 9.171875 -1.8125 "/></g></g></g><g fill="#03989e" fill-opacity="1"><g transform="translate(156.056956, 243.074002)"><g><path d="M 13.359375 -1.140625 C 12.890625 -0.710938 12.300781 -0.382812 11.59375 -0.15625 C 10.894531 0.0625 10.171875 0.171875 9.421875 0.171875 C 7.660156 0.171875 6.304688 -0.300781 5.359375 -1.25 C 4.410156 -2.195312 3.9375 -3.535156 3.9375 -5.265625 L 3.9375 -16.5625 L 0.609375 -16.5625 L 0.609375 -18.6875 L 3.9375 -18.6875 L 3.9375 -22.78125 L 6.46875 -22.78125 L 6.46875 -18.6875 L 12.15625 -18.6875 L 12.15625 -16.5625 L 6.46875 -16.5625 L 6.46875 -5.40625 C 6.46875 -4.289062 6.742188 -3.441406 7.296875 -2.859375 C 7.859375 -2.273438 8.660156 -1.984375 9.703125 -1.984375 C 10.222656 -1.984375 10.722656 -2.066406 11.203125 -2.234375 C 11.691406 -2.398438 12.113281 -2.640625 12.46875 -2.953125 Z M 13.359375 -1.140625 "/></g></g></g><g fill="#03989e" fill-opacity="1"><g transform="translate(170.477918, 243.074002)"><g><path d="M 13.046875 -18.828125 C 15.390625 -18.828125 17.253906 -18.144531 18.640625 -16.78125 C 20.023438 -15.425781 20.71875 -13.445312 20.71875 -10.84375 L 20.71875 0 L 18.1875 0 L 18.1875 -10.59375 C 18.1875 -12.53125 17.703125 -14.007812 16.734375 -15.03125 C 15.765625 -16.050781 14.378906 -16.5625 12.578125 -16.5625 C 10.566406 -16.5625 8.972656 -15.960938 7.796875 -14.765625 C 6.628906 -13.566406 6.046875 -11.914062 6.046875 -9.8125 L 6.046875 0 L 3.515625 0 L 3.515625 -26.359375 L 6.046875 -26.359375 L 6.046875 -15.421875 C 6.734375 -16.515625 7.675781 -17.351562 8.875 -17.9375 C 10.082031 -18.53125 11.472656 -18.828125 13.046875 -18.828125 Z M 13.046875 -18.828125 "/></g></g></g><g fill="#03989e" fill-opacity="1"><g transform="translate(194.524689, 243.074002)"><g><path d="M 19.796875 -8.5625 L 4.15625 -8.5625 C 4.300781 -6.625 5.046875 -5.054688 6.390625 -3.859375 C 7.742188 -2.660156 9.453125 -2.0625 11.515625 -2.0625 C 12.671875 -2.0625 13.734375 -2.265625 14.703125 -2.671875 C 15.679688 -3.085938 16.523438 -3.703125 17.234375 -4.515625 L 18.65625 -2.875 C 17.820312 -1.882812 16.78125 -1.128906 15.53125 -0.609375 C 14.289062 -0.0859375 12.925781 0.171875 11.4375 0.171875 C 9.519531 0.171875 7.820312 -0.234375 6.34375 -1.046875 C 4.863281 -1.867188 3.707031 -3 2.875 -4.4375 C 2.050781 -5.882812 1.640625 -7.519531 1.640625 -9.34375 C 1.640625 -11.164062 2.035156 -12.800781 2.828125 -14.25 C 3.617188 -15.695312 4.707031 -16.820312 6.09375 -17.625 C 7.476562 -18.425781 9.035156 -18.828125 10.765625 -18.828125 C 12.492188 -18.828125 14.046875 -18.425781 15.421875 -17.625 C 16.796875 -16.820312 17.875 -15.703125 18.65625 -14.265625 C 19.4375 -12.828125 19.828125 -11.1875 19.828125 -9.34375 Z M 10.765625 -16.671875 C 8.960938 -16.671875 7.453125 -16.09375 6.234375 -14.9375 C 5.015625 -13.789062 4.320312 -12.296875 4.15625 -10.453125 L 17.40625 -10.453125 C 17.238281 -12.296875 16.546875 -13.789062 15.328125 -14.9375 C 14.109375 -16.09375 12.585938 -16.671875 10.765625 -16.671875 Z M 10.765625 -16.671875 "/></g></g></g><g fill="#03989e" fill-opacity="1"><g transform="translate(215.978526, 243.074002)"><g><path d="M 5.9375 -15.03125 C 6.53125 -16.28125 7.410156 -17.222656 8.578125 -17.859375 C 9.753906 -18.503906 11.207031 -18.828125 12.9375 -18.828125 L 12.9375 -16.375 L 12.328125 -16.421875 C 10.359375 -16.421875 8.816406 -15.816406 7.703125 -14.609375 C 6.597656 -13.398438 6.046875 -11.703125 6.046875 -9.515625 L 6.046875 0 L 3.515625 0 L 3.515625 -18.6875 L 5.9375 -18.6875 Z M 5.9375 -15.03125 "/></g></g></g><g fill="#03989e" fill-opacity="1"><g transform="translate(230.221887, 243.074002)"><g><path d="M 14.859375 0.21875 C 12.390625 0.21875 10.164062 -0.328125 8.1875 -1.421875 C 6.207031 -2.515625 4.65625 -4.023438 3.53125 -5.953125 C 2.40625 -7.878906 1.84375 -10.039062 1.84375 -12.4375 C 1.84375 -14.832031 2.40625 -16.992188 3.53125 -18.921875 C 4.65625 -20.847656 6.210938 -22.351562 8.203125 -23.4375 C 10.191406 -24.53125 12.421875 -25.078125 14.890625 -25.078125 C 16.734375 -25.078125 18.4375 -24.769531 20 -24.15625 C 21.5625 -23.539062 22.890625 -22.640625 23.984375 -21.453125 L 22.3125 -19.796875 C 20.375 -21.753906 17.921875 -22.734375 14.953125 -22.734375 C 12.992188 -22.734375 11.207031 -22.285156 9.59375 -21.390625 C 7.976562 -20.492188 6.710938 -19.257812 5.796875 -17.6875 C 4.890625 -16.125 4.4375 -14.375 4.4375 -12.4375 C 4.4375 -10.488281 4.890625 -8.734375 5.796875 -7.171875 C 6.710938 -5.609375 7.976562 -4.375 9.59375 -3.46875 C 11.207031 -2.570312 12.992188 -2.125 14.953125 -2.125 C 17.941406 -2.125 20.394531 -3.117188 22.3125 -5.109375 L 23.984375 -3.453125 C 22.890625 -2.265625 21.554688 -1.351562 19.984375 -0.71875 C 18.410156 -0.09375 16.703125 0.21875 14.859375 0.21875 Z M 14.859375 0.21875 "/></g></g></g><g fill="#03989e" fill-opacity="1"><g transform="translate(255.760476, 243.074002)"><g><path d="M 10.0625 -18.828125 C 12.5 -18.828125 14.367188 -18.21875 15.671875 -17 C 16.972656 -15.78125 17.625 -13.972656 17.625 -11.578125 L 17.625 0 L 15.203125 0 L 15.203125 -2.90625 C 14.640625 -1.9375 13.804688 -1.179688 12.703125 -0.640625 C 11.597656 -0.0976562 10.289062 0.171875 8.78125 0.171875 C 6.695312 0.171875 5.035156 -0.320312 3.796875 -1.3125 C 2.566406 -2.3125 1.953125 -3.628906 1.953125 -5.265625 C 1.953125 -6.847656 2.523438 -8.125 3.671875 -9.09375 C 4.828125 -10.0625 6.660156 -10.546875 9.171875 -10.546875 L 15.09375 -10.546875 L 15.09375 -11.6875 C 15.09375 -13.300781 14.644531 -14.523438 13.75 -15.359375 C 12.851562 -16.203125 11.539062 -16.625 9.8125 -16.625 C 8.625 -16.625 7.484375 -16.425781 6.390625 -16.03125 C 5.304688 -15.644531 4.375 -15.109375 3.59375 -14.421875 L 2.453125 -16.3125 C 3.398438 -17.113281 4.535156 -17.734375 5.859375 -18.171875 C 7.191406 -18.609375 8.59375 -18.828125 10.0625 -18.828125 Z M 9.171875 -1.8125 C 10.585938 -1.8125 11.804688 -2.132812 12.828125 -2.78125 C 13.847656 -3.4375 14.601562 -4.378906 15.09375 -5.609375 L 15.09375 -8.671875 L 9.234375 -8.671875 C 6.035156 -8.671875 4.4375 -7.554688 4.4375 -5.328125 C 4.4375 -4.234375 4.847656 -3.375 5.671875 -2.75 C 6.503906 -2.125 7.671875 -1.8125 9.171875 -1.8125 Z M 9.171875 -1.8125 "/></g></g></g><g fill="#03989e" fill-opacity="1"><g transform="translate(276.717044, 243.074002)"><g><path d="M 13.140625 -18.828125 C 14.898438 -18.828125 16.488281 -18.429688 17.90625 -17.640625 C 19.332031 -16.847656 20.445312 -15.726562 21.25 -14.28125 C 22.050781 -12.832031 22.453125 -11.1875 22.453125 -9.34375 C 22.453125 -7.46875 22.050781 -5.804688 21.25 -4.359375 C 20.445312 -2.921875 19.335938 -1.804688 17.921875 -1.015625 C 16.515625 -0.222656 14.921875 0.171875 13.140625 0.171875 C 11.628906 0.171875 10.265625 -0.140625 9.046875 -0.765625 C 7.828125 -1.390625 6.828125 -2.304688 6.046875 -3.515625 L 6.046875 6.890625 L 3.515625 6.890625 L 3.515625 -18.6875 L 5.9375 -18.6875 L 5.9375 -15 C 6.695312 -16.226562 7.695312 -17.171875 8.9375 -17.828125 C 10.175781 -18.492188 11.578125 -18.828125 13.140625 -18.828125 Z M 12.96875 -2.0625 C 14.269531 -2.0625 15.453125 -2.363281 16.515625 -2.96875 C 17.585938 -3.570312 18.425781 -4.429688 19.03125 -5.546875 C 19.632812 -6.660156 19.9375 -7.925781 19.9375 -9.34375 C 19.9375 -10.769531 19.632812 -12.03125 19.03125 -13.125 C 18.425781 -14.226562 17.585938 -15.085938 16.515625 -15.703125 C 15.453125 -16.316406 14.269531 -16.625 12.96875 -16.625 C 11.644531 -16.625 10.453125 -16.316406 9.390625 -15.703125 C 8.335938 -15.085938 7.507812 -14.226562 6.90625 -13.125 C 6.300781 -12.03125 6 -10.769531 6 -9.34375 C 6 -7.925781 6.300781 -6.660156 6.90625 -5.546875 C 7.507812 -4.429688 8.335938 -3.570312 9.390625 -2.96875 C 10.453125 -2.363281 11.644531 -2.0625 12.96875 -2.0625 Z M 12.96875 -2.0625 "/></g></g></g></svg>