<svg xmlns="http://www.w3.org/2000/svg" xmlns:xlink="http://www.w3.org/1999/xlink" width="500" zoomAndPan="magnify" viewBox="0 0 375 374.999991" height="500" preserveAspectRatio="xMidYMid meet" version="1.0"><defs><clipPath id="ab57d50d1d"><path d="M 87.179688 114.226562 L 288 114.226562 L 288 260.476562 L 87.179688 260.476562 Z M 87.179688 114.226562 " clip-rule="nonzero"/></clipPath></defs><g clip-path="url(#ab57d50d1d)"><path fill="#03989e" d="M 129.5 260.769531 L 176.78125 260.769531 C 152.183594 254.378906 137.085938 237.761719 137.085938 237.761719 C 123.625 224.304688 115.304688 205.726562 115.304688 185.21875 C 115.304688 184.191406 115.328125 183.214844 115.378906 182.308594 C 115.402344 181.351562 115.453125 180.398438 115.523438 179.421875 C 115.550781 179.078125 115.304688 178.785156 114.960938 178.757812 C 114.839844 178.734375 114.742188 178.757812 114.644531 178.808594 C 106.519531 181.867188 99.570312 187.324219 94.699219 194.347656 C 89.976562 201.199219 87.183594 209.496094 87.183594 218.453125 C 87.183594 230.128906 91.933594 240.699219 99.59375 248.359375 C 107.226562 256.019531 117.824219 260.769531 129.5 260.769531 Z M 203.40625 260.769531 L 233.261719 260.769531 C 248.3125 260.769531 261.96875 254.648438 271.832031 244.785156 C 281.695312 234.925781 287.8125 221.292969 287.8125 206.21875 C 287.8125 193.171875 283.210938 181.183594 275.550781 171.808594 C 267.769531 162.238281 256.78125 155.363281 244.25 152.792969 C 243.910156 152.746094 243.566406 152.941406 243.515625 153.28125 C 243.492188 153.429688 243.492188 153.550781 243.566406 153.675781 C 249.121094 166.15625 251.960938 179.789062 251.960938 193.003906 C 251.960938 206.070312 249.171875 218.722656 243.394531 229.417969 C 239.652344 236.417969 234.609375 242.585938 228.269531 247.480469 C 228.636719 247.183594 229.03125 246.867188 229.398438 246.574219 C 223.816406 251.296875 214.882812 257.464844 203.40625 260.769531 Z M 187.007812 133.4375 C 174.285156 133.4375 162.757812 138.597656 154.4375 146.945312 C 146.089844 155.265625 140.925781 166.792969 140.925781 179.519531 C 140.925781 186.6875 142.566406 193.46875 145.480469 199.511719 C 147.683594 204.039062 150.570312 208.152344 154.042969 211.699219 C 148.585938 208.101562 143.988281 203.378906 140.535156 197.824219 C 136.203125 190.921875 133.707031 182.722656 133.707031 173.988281 C 133.707031 161.507812 138.773438 150.222656 146.949219 142.050781 C 155.097656 133.875 166.402344 128.835938 178.859375 128.835938 C 184.613281 128.835938 190.09375 129.910156 195.132812 131.84375 C 198.5625 133.167969 201.792969 134.902344 204.753906 136.984375 C 202.867188 136.203125 200.910156 135.539062 198.902344 135.003906 C 195.085938 133.972656 191.121094 133.4375 187.007812 133.4375 Z M 232.726562 148.09375 C 227.832031 137.914062 220.121094 129.347656 210.625 123.378906 C 201.425781 117.578125 190.535156 114.226562 178.859375 114.226562 C 162.367188 114.226562 147.414062 120.90625 136.621094 131.722656 C 111.78125 156.5625 114.105469 202.007812 138.332031 226.238281 C 150.203125 238.105469 166.597656 245.449219 184.734375 245.449219 C 190.730469 245.449219 196.53125 244.640625 202.058594 243.148438 C 222.445312 237.566406 236.273438 218.527344 228.148438 195.914062 C 228.027344 195.597656 227.683594 195.425781 227.339844 195.546875 C 227.144531 195.621094 227.023438 195.769531 226.972656 195.964844 C 221.882812 214.90625 205.167969 227.875 201.082031 230.8125 C 199.34375 199.78125 205.144531 180.179688 212.386719 167.917969 C 219.679688 155.582031 228.417969 150.664062 232.429688 148.976562 C 232.75 148.828125 232.894531 148.460938 232.75 148.144531 Z M 232.726562 148.09375 " fill-opacity="1" fill-rule="evenodd"/></g></svg>


